<?xml version="1.0" standalone="no"?>
<!DOCTYPE svg PUBLIC "-//W3C//DTD SVG 20010904//EN"
 "http://www.w3.org/TR/2001/REC-SVG-20010904/DTD/svg10.dtd">
<svg version="1.0" xmlns="http://www.w3.org/2000/svg"
 width="26.000000pt" height="26.000000pt" viewBox="0 0 26.000000 26.000000"
 preserveAspectRatio="xMidYMid meet">

<g transform="translate(0.000000,26.000000) scale(0.100000,-0.100000)"
fill="#000000" stroke="none">
<path d="M83 224 c-31 -15 -63 -66 -63 -99 0 -25 27 -72 52 -89 12 -9 40 -16
61 -16 55 0 107 52 107 107 0 47 -22 81 -66 99 -42 18 -51 17 -91 -2z m112
-39 c35 -34 33 -78 -4 -116 -38 -37 -82 -39 -116 -4 -33 32 -34 89 -3 122 30
32 90 32 123 -2z"/>
<path d="M90 162 c0 -4 5 -13 12 -20 8 -8 8 -15 -2 -27 -17 -20 -5 -32 15 -15
13 10 19 10 33 -4 10 -9 22 -13 25 -9 4 3 0 15 -9 25 -14 14 -14 20 -4 33 17
20 5 32 -15 15 -12 -10 -19 -10 -27 -2 -14 14 -28 16 -28 4z"/>
</g>
</svg>
